<mxfile host="app.diagrams.net" modified="2024-01-09T07:45:16.197Z" agent="Mozilla/5.0 (Windows NT 10.0; Win64; x64) AppleWebKit/537.36 (KHTML, like Gecko) Chrome/120.0.0.0 Safari/537.36" version="21.7.2" etag="bQRkIDUmQDvklYG2MVpt" type="github">
  <diagram name="Page-1" id="HN_4bWc9RsCOQGGzkLj7">
    <mxGraphModel>
      <root>
        <mxCell id="0" />
        <mxCell id="1" parent="0" />
      </root>
    </mxGraphModel>
  </diagram>
</mxfile>
